<svg xmlns="http://www.w3.org/2000/svg" width="128" height="128" viewBox="0 0 128 128">
  <rect width="128" height="128" rx="20" fill="#ffffff"/>
  <g fill="#202020">
    <rect x="14" y="14" width="38" height="38" rx="3"/>
    <rect x="76" y="14" width="38" height="38" rx="3"/>
    <rect x="14" y="76" width="38" height="38" rx="3"/>
    <rect x="22" y="22" width="22" height="22" fill="#ffffff"/>
    <rect x="84" y="22" width="22" height="22" fill="#ffffff"/>
    <rect x="22" y="84" width="22" height="22" fill="#ffffff"/>
    <rect x="28" y="28" width="10" height="10"/>
    <rect x="90" y="28" width="10" height="10"/>
    <rect x="28" y="90" width="10" height="10"/>
    <rect x="64" y="62" width="10" height="10"/>
    <rect x="78" y="62" width="10" height="10"/>
    <rect x="92" y="62" width="10" height="10"/>
    <rect x="106" y="62" width="8" height="10"/>
    <rect x="62" y="78" width="12" height="10"/>
    <rect x="84" y="78" width="10" height="10"/>
    <rect x="104" y="78" width="10" height="10"/>
    <rect x="62" y="92" width="10" height="10"/>
    <rect x="76" y="92" width="10" height="22"/>
    <rect x="92" y="96" width="10" height="10"/>
    <rect x="106" y="92" width="8" height="22"/>
  </g>
</svg>
